<!-- Generated by IcoMoon.io -->
<svg version="1.1" xmlns="http://www.w3.org/2000/svg" width="945" height="1024" viewBox="0 0 945 1024">
<g id="icomoon-ignore">
</g>
<path fill="#000" d="M387.151 40.369c0.788 2.954 0.394 4.923-0.985 4.923-1.182 0-2.166-1.378-2.166-2.954 0-3.545-0.197-3.545-6.892-0.985-3.938 1.575-4.923 2.954-3.938 5.908 0.591 1.969 0.197 5.514-0.985 7.877s-1.378 3.938-0.197 3.938c4.135 0 8.074 6.498 8.074 13.391 0 8.862-7.286 24.812-15.36 33.28-5.12 5.514-7.483 6.498-14.769 6.498-4.726 0-14.769-2.166-22.252-4.726-12.012-4.332-13.588-5.317-14.178-10.437-0.394-2.954-1.772-6.695-2.954-8.271-1.969-2.363-2.56-1.772-3.348 2.757-1.378 7.483-5.514 8.468-6.892 1.575-2.56-11.815-8.074-16.148-9.255-7.089-0.788 5.317-0.985 5.12-5.12-3.938-4.529-10.043-8.271-12.012-8.271-4.332 0 3.938-0.985 4.923-4.923 4.923-13.194 0 1.182 17.329 25.206 30.523 24.615 13.588 22.449 10.831 18.511 23.434-3.938 12.012-15.557 35.249-20.874 41.354-1.772 1.969-7.089 6.302-11.815 9.452-7.483 4.726-10.831 5.514-22.252 5.514h-13.391v-7.68c0-7.68-2.166-10.043-9.255-10.043-2.363 0-2.757 1.772-2.166 7.877 0.591 6.498 0 7.877-2.757 7.877-4.135 0-7.877-6.498-6.302-10.634 1.772-4.332-2.757-9.058-8.271-9.058-5.12 0-5.908 1.969-2.56 5.317 2.954 2.954-1.378 10.831-5.711 10.043-2.363-0.394-3.545-3.348-4.332-9.452-0.985-8.271-1.378-8.862-7.286-9.452-6.302-0.591-6.498-0.394-4.529 4.529 2.757 7.483 2.757 7.483-5.12 6.302-5.12-0.788-7.877-0.197-10.634 2.56-7.877 7.877 0.197 16.738 27.569 31.114 25.797 13.588 54.548 23.828 77.194 27.766 10.437 1.772 19.692 3.742 20.283 4.529 0.788 0.788 1.182 36.431 1.182 79.163l-0.197 77.982h21.662v-51.2c0-35.84 0.591-51.2 2.166-51.2 1.182 0 2.757 1.969 3.348 4.332 0.591 2.56 4.529 11.225 8.665 19.495l7.483 15.163v61.44h11.815v-48.049l7.483 6.892c19.102 18.117 50.412 35.052 72.271 38.991 16.148 2.954 54.548 2.56 70.105-0.591 17.132-3.742 35.643-12.209 54.942-25.6 8.665-6.105 16.148-11.028 16.738-11.028s0.985 9.255 0.985 20.677v20.677h13.785v-31.311c0-27.372 0.394-31.705 3.742-35.84 4.332-5.711 12.012-20.48 14.178-27.372 0.788-2.757 1.575 16.935 1.575 43.717l0.197 48.837h19.102l0.985-76.8c0.394-42.142 1.378-77.194 1.969-77.982 0.788-0.591 10.437-2.757 21.662-4.726s26.978-5.908 35.052-8.665c18.905-6.695 61.44-27.372 70.105-34.265 11.225-8.862 13.982-22.055 4.529-22.055-3.742 0-4.135-0.788-2.954-7.089 1.378-6.695 1.182-6.892-4.135-6.302-4.332 0.394-5.711 1.969-7.089 7.877-1.378 6.105-2.56 7.483-6.498 7.483-4.135 0-4.726-0.591-3.545-4.923 0.985-4.135 0.591-4.923-2.954-4.923-4.332 0-8.074 5.317-8.074 11.815 0 3.151-0.985 4.135-4.332 3.545-3.742-0.394-4.332-1.575-3.938-6.302 0.591-5.12 0.197-5.514-3.938-4.529-2.363 0.788-5.12 1.378-5.908 1.378-0.985 0-1.575 2.166-1.575 4.726 0 6.498-2.954 8.271-17.92 10.831-29.342 4.923-41.551 1.575-52.382-14.178-5.908-8.665-16.345-33.28-19.102-45.095-0.985-4.332-0.394-5.514 4.726-7.089 9.649-3.545 34.068-18.511 40.96-25.206 3.348-3.348 6.302-8.074 6.302-10.437 0-3.348-0.788-3.938-5.908-2.954-5.12 1.182-5.908 0.591-5.908-2.757 0-6.695-5.12-3.151-9.058 6.105l-3.545 8.271-0.788-7.483c-0.788-8.665-3.151-7.877-7.68 2.166-2.954 6.498-3.348 6.695-3.938 2.757-1.378-6.892-6.105-5.12-8.665 3.545-1.575 5.317-3.742 8.271-6.498 8.862-12.603 2.757-33.674 4.529-37.415 2.954-9.255-3.545-26.782-27.372-26.782-36.234 0-4.923 6.695-12.997 10.634-12.997 1.182 0 0.788-1.182-0.985-2.56-1.575-1.378-2.954-5.12-2.954-8.271 0.197-4.726-0.788-6.105-4.135-6.498-3.151-0.394-4.529 0.394-4.529 2.363 0 1.772-1.772 3.151-3.938 3.151-3.545 0-3.742-0.591-1.969-4.135 3.151-5.908 0.591-7.286-4.332-2.166-3.742 3.742-3.938 4.726-1.772 9.452 1.969 4.332 1.772 5.711-0.197 6.892-2.954 1.969-137.846 2.363-147.102 0.591-5.711-1.182-6.105-1.772-4.923-7.68 1.378-7.286-1.772-14.769-6.302-14.769-1.969 0-2.56 1.378-1.575 4.923z"></path>
<path fill="#000" d="M678.4 420.037c-3.348 2.757-11.225 8.074-17.723 11.815-19.889 11.618-18.511 5.711-19.102 77.194-0.591 61.243-0.788 63.212-4.923 70.105-2.363 3.742-6.695 8.074-9.452 9.255-3.348 1.575-19.495 2.363-48.246 2.363h-43.323v-32.886l-22.055-12.406c-12.209-6.892-22.843-12.8-23.631-13.194-0.985-0.394-1.575 20.48-1.575 46.474v47.458h76.406c85.268 0 91.175-0.788 104.369-12.8 4.529-3.938 9.058-11.028 11.815-18.117 4.332-11.422 4.529-12.012 3.938-95.902l-0.591-84.48-5.908 5.12z"></path>
<path fill="#000" d="M35.446 528.738v97.674l82.314-0.591c80.345-0.591 82.314-0.591 90.191-4.923 9.649-5.12 17.723-14.178 22.843-25.797 3.545-7.68 3.742-12.997 3.151-67.151l-0.591-58.683-7.286-11.028c-8.074-12.209-20.283-21.465-32.098-24.812-5.12-1.378-34.265-2.166-83.102-2.166h-75.422v97.477zM175.852 468.874c7.286 3.742 13.391 10.24 16.345 17.329 1.969 4.923 2.757 16.148 2.757 43.914 0 41.157-1.182 46.474-11.618 55.335l-6.498 5.317h-94.129v-124.062h44.505c28.948 0 45.883 0.788 48.64 2.166z"></path>
<path fill="#000" d="M294.4 436.972c-14.178 6.695-20.677 13.391-27.372 27.766l-5.12 10.831v150.646h76.8c89.403 0 90.585-0.197 105.748-14.769 15.36-14.966 15.36-15.163 15.36-103.385v-75.815l-76.8-0.591-76.8-0.394-11.815 5.711zM415.508 519.877c0 55.138-0.985 60.062-12.209 66.954-6.105 3.545-9.846 3.938-51.2 3.938h-44.898v-104.763l15.36-15.36h92.948v49.231z"></path>
<path fill="#000" d="M750.080 434.018c-13.785 4.923-25.994 16.148-33.674 30.72-4.529 8.862-4.529 9.649-5.12 85.071l-0.591 76.406h77.588c89.206 0 93.342-0.591 106.535-14.375 15.163-15.754 14.966-14.375 14.966-102.4v-78.178h-76.209c-57.305 0.197-78.178 0.788-83.495 2.757zM866.462 519.877c0 55.138-0.985 60.062-12.209 66.954-6.105 3.545-9.846 3.938-51.2 3.938h-44.898v-51.988c0-50.609 0.197-51.988 4.332-57.502 8.271-10.634 7.286-10.437 57.305-10.634h46.671v49.231z"></path>
<path fill="#000" d="M294.794 659.298c-2.56 0.591-3.348 3.938-3.742 18.708l-0.591 18.117-8.665-18.314-8.862-18.117h-38.203c-37.218 0-38.203 0.197-41.945 4.332l-3.545 4.529-0.197-4.529c0-4.135-0.788-4.332-16.738-4.332h-16.738v66.954h16.738c14.178 0 16.738-0.394 16.738-3.348s0.197-2.954 3.545 0c2.954 2.757 8.271 3.348 29.735 3.348 24.418 0 26.191-0.197 27.175-3.938 0.788-2.954 2.757-3.938 7.877-3.938s7.089 0.985 7.877 3.938c0.985 3.742 2.757 3.938 56.911 3.938 53.76 0 55.926-0.197 57.895-3.938 1.378-2.56 4.135-3.938 7.877-3.938 4.529 0 5.908 0.788 5.908 3.938 0 3.742 1.378 3.938 34.462 3.938h34.462v-19.692c0-18.314 0.197-19.692 3.938-19.692s3.938 1.378 3.938 19.692v19.692h52.972l0.591-6.498 0.591-6.302 17.92-0.591c17.526-0.591 18.117-0.394 28.16 6.302 11.815 8.074 19.495 9.846 34.068 8.468 5.711-0.591 23.434-1.182 39.582-1.182 25.403 0 28.948-0.394 28.948-3.151 0-1.772 0.591-2.954 1.575-2.56 13.194 6.892 17.92 7.877 31.508 7.089 12.406-0.788 15.36-1.772 22.055-7.286l7.877-6.302v12.012h26.388c24.025 0 26.782-0.394 32.886-4.529 7.483-5.12 10.437-14.178 7.286-23.828-1.182-3.348-1.969-10.437-1.772-15.557 0.394-8.271-0.394-10.24-6.302-16.148l-6.892-6.892h-83.102v20.874c0 15.754-0.591 20.677-2.363 20.086s-2.757-7.089-3.151-20.677l-0.591-19.889-11.225-0.788c-6.105-0.197-13.588-0.394-16.542 0l-5.514 0.591v39.188h-11.815v-39.582l-20.086-0.197c-11.225-0.197-26.978-0.394-35.446-0.394-13.785-0.197-15.754 0.394-23.631 5.711-4.529 3.348-10.634 9.846-12.997 14.375l-4.726 8.468-32.098-1.182-0.591-13.391-0.591-13.194h-107.914l-0.591 13.194-0.591 13.391-5.12-12.8c-6.105-14.572-7.286-15.163-26.585-13.785l-12.997 0.985-6.302 15.754c-11.422 28.948-12.997 31.311-15.951 26.782-0.591-0.985-0.197-2.363 0.985-3.151 1.182-0.591 3.348-4.332 4.923-8.271 5.514-13.194-2.166-27.372-17.329-31.114-5.514-1.378-36.037-2.363-41.354-1.378zM237.095 666.978c-1.182 4.923-13.982 35.84-15.754 37.809-0.985 0.985-12.603-9.846-12.603-11.618 0-1.182 27.569-30.72 29.145-31.311 0.197-0.197 0 2.166-0.788 5.12zM181.169 677.218l0.985 10.437 10.24-11.028c9.846-10.437 10.634-11.028 19.298-10.634 4.923 0.197 8.862 0.985 8.862 1.575s-4.923 6.302-10.831 12.8c-12.012 13.194-12.012 12.603 1.772 27.963 4.923 5.514 9.058 10.634 9.058 11.225s-4.726 1.182-10.634 1.182c-10.437 0-10.634 0-19.102-11.225l-8.665-11.225-1.182 22.449h-17.526v-26.191c0-14.572 0.591-26.978 1.378-27.766s4.529-0.985 8.468-0.788c6.892 0.788 6.892 0.985 7.877 11.225zM266.831 667.175c1.182 0.788 3.938 5.711 6.302 11.225 2.363 5.317 7.286 16.935 11.225 25.6l7.089 15.754-9.255 0.591c-8.074 0.591-9.846 0-12.997-4.332s-5.317-5.12-12.997-5.12c-8.074 0-9.649 0.591-11.618 4.923-1.969 4.135-3.545 4.923-11.225 4.923-4.923 0-8.862-0.788-8.862-1.772 0-1.772 8.074-22.055 16.345-40.566 5.317-12.012 6.105-12.8 16.148-12.8 4.332 0 8.862 0.788 9.846 1.575zM403.298 678.794c9.058 19.495 18.117 40.172 18.117 41.157 0 0.591-4.726 0.788-10.24 0.394-8.665-0.394-10.831-1.378-12.406-5.12-1.575-3.545-3.545-4.332-11.225-4.332-7.877 0-9.846 0.788-12.603 4.923-2.56 3.938-4.726 4.923-11.815 4.923-4.726 0-8.665-0.591-8.665-1.378 0-1.575 8.271-22.646 15.36-39.385l5.12-12.209 10.043-0.788c5.317-0.394 10.437-0.788 11.028-0.985s3.938 5.514 7.286 12.8zM612.628 667.569c2.757 1.575 3.742 4.135 3.742 9.846v7.483l-6.105-2.954c-11.815-5.908-25.403 0.788-25.403 12.406 0 4.923 1.378 7.483 5.317 10.043 5.908 3.938 18.708 4.332 23.237 0.591 2.56-2.166 2.954-1.378 2.954 5.711 0 9.649-2.954 11.028-23.040 9.649-11.815-0.788-13.391-1.378-19.298-7.68-17.92-19.495-3.742-46.868 24.222-47.065 5.711 0 12.209 0.985 14.375 1.969zM645.514 686.868l0.591 20.086h19.692l-0.591 6.302-0.591 6.498h-37.415l-0.197-25.6c0-14.178 0.197-26.191 0.394-26.782 0.394-0.591 4.529-0.985 9.058-0.788l8.468 0.394 0.591 19.889zM730.585 686.671c0 28.948-4.332 34.068-28.554 34.068-24.025 0-28.554-5.514-28.554-35.446v-17.723h17.723v16.345c0 17.92 2.954 25.009 10.634 25.009s9.058-3.545 9.058-22.843c0-20.086 0.394-20.677 14.375-18.708l5.317 0.591v18.708zM789.268 670.72c5.514 3.545 6.105 15.36 0.985 18.314-3.151 1.575-2.954 2.363 1.969 6.105 6.302 5.12 7.089 13.194 1.575 19.889-3.545 4.332-5.317 4.726-27.569 5.514l-23.828 0.591v-26.388c0-14.572 0.591-26.978 1.182-27.766 2.363-2.166 40.96 0.985 45.686 3.742zM342.843 673.28c7.483 7.483 7.286 12.997-0.985 20.874l-6.695 6.302 7.483 8.665c4.332 4.726 7.68 9.255 7.877 10.043 0 0.985-4.332 1.575-9.649 1.575-8.468 0-10.634-0.788-15.754-6.498-3.348-3.348-6.302-7.286-6.302-8.271-0.197-1.182-0.985 1.575-1.575 5.908-1.182 7.68-1.378 7.877-9.452 8.468l-8.468 0.591v-53.366h18.905c18.117 0 19.102 0.197 24.615 5.711zM469.071 674.462c-0.788 6.105-1.575 6.892-6.498 6.892h-5.514l-0.591 19.102-0.591 19.298-18.708 1.182v-39.582h-6.892c-6.498 0-6.892-0.394-6.892-6.892v-6.892h46.474l-0.788 6.892zM517.514 673.871c-0.591 6.302-0.788 6.498-10.831 7.089-7.483 0.394-10.437 1.378-10.437 3.545 0 1.969 2.56 2.757 9.846 2.757 9.649 0 9.846 0.197 9.846 5.908s-0.197 5.908-9.846 5.908c-8.468 0-9.846 0.591-9.846 3.938 0 3.545 1.378 3.938 11.028 3.938h10.831l-0.591 6.302-0.591 6.498-38.4 1.182v-53.366h39.582l-0.591 6.302zM429.292 702.425c0 8.271-0.591 14.375-1.378 13.785-0.591-0.788-2.954-6.105-5.12-11.618-6.498-17.92-6.498-17.329 0.394-17.329h6.105v15.163zM611.643 690.215c3.742 2.954 3.742 2.954-0.985 7.089-8.074 6.695-20.677 1.772-17.329-6.892 1.575-4.135 12.997-4.135 18.314-0.197zM557.292 699.077v5.908h-31.508v-11.815h31.508v5.908z"></path>
<path fill="#000" d="M253.44 690.806l-2.954 7.286 5.908 0.591c7.68 0.788 8.468-0.197 5.514-7.483-3.545-8.665-5.12-8.665-8.468-0.394z"></path>
<path fill="#000" d="M383.409 690.609l-2.954 7.483 5.908 0.591c3.151 0.394 6.302 0.394 6.695 0 1.182-1.182-3.742-15.36-5.317-15.36-0.788 0-2.757 3.348-4.332 7.286z"></path>
<path fill="#000" d="M762.092 682.338c0 4.332 0.788 4.923 6.892 4.923 5.514 0 6.892-0.788 6.892-3.742 0-3.938-3.545-6.105-10.043-6.105-2.757 0-3.742 1.378-3.742 4.923z"></path>
<path fill="#000" d="M762.092 704c0 4.726 0.591 5.12 7.483 4.529 5.711-0.394 7.286-1.378 7.286-4.529s-1.575-4.135-7.286-4.529c-6.892-0.591-7.483-0.197-7.483 4.529z"></path>
<path fill="#000" d="M317.046 684.308c0 4.529 0.788 5.12 5.514 4.529 3.742-0.394 5.317-1.772 5.317-4.529s-1.575-4.135-5.317-4.529c-4.726-0.591-5.514 0-5.514 4.529z"></path>
<path fill="#000" d="M463.557 774.892c-18.708 5.12-31.902 12.603-40.369 23.434-13.391 16.542-22.055 38.597-14.966 38.597 1.182 0 4.332 0.591 6.695 1.182 3.742 0.985 4.726 0 7.68-10.24 3.938-13.785 16.345-27.963 30.917-35.249 14.769-7.286 34.855-7.089 51.397 0.788 21.465 10.437 36.825 37.415 33.674 60.062-1.969 15.163-6.892 24.615-20.283 38.006-9.649 9.649-12.209 13.391-12.209 18.117 0 7.089-0.394 6.892 8.468 3.151 9.649-3.938 25.206-20.283 31.311-32.886 10.437-20.874 9.058-52.382-3.151-71.286-11.225-17.723-25.994-27.963-47.852-33.674-13.588-3.545-18.117-3.545-31.311 0z"></path>
<path fill="#000" d="M630.745 773.908c-11.618 2.363-29.538 11.225-38.203 19.102-7.286 6.498-18.511 25.403-21.662 36.628-1.378 4.726-0.985 5.711 3.545 7.483 7.286 2.757 9.255 1.378 11.815-8.468 2.954-10.634 16.935-26.978 29.932-34.658 8.074-4.726 11.028-5.317 27.766-5.317 21.662 0 26.782 1.969 41.354 16.738 12.997 12.8 16.345 19.889 17.329 37.809 1.182 21.465-2.757 31.902-18.314 46.868-9.649 9.058-14.572 12.209-23.631 14.769-14.375 4.332-30.523 3.151-42.338-2.954-9.452-4.923-29.538-24.418-29.538-28.948 0-4.135-9.058-12.406-13.785-12.406-5.908 0-4.923 5.514 3.151 21.071 8.665 16.345 17.526 25.009 33.871 32.689 44.702 21.071 96.295-6.302 104.96-55.532 3.742-20.48-3.938-45.489-18.511-62.425-8.271-9.452-27.372-19.495-42.535-22.449-11.815-2.166-13.588-2.166-25.206 0z"></path>
<path fill="#000" d="M296.369 775.68c-21.662 5.711-39.975 20.48-50.215 40.763-4.332 8.468-4.923 12.209-4.923 30.326 0 25.403 3.742 34.265 21.662 52.382 12.8 12.997 25.206 19.102 44.111 21.662l10.043 1.378v-7.286c0-7.089-0.197-7.089-8.074-7.089-12.012 0-31.508-10.043-40.172-20.677-20.874-25.403-19.298-59.668 3.742-82.905 17.132-16.935 38.203-22.252 59.668-14.966 39.385 13.785 54.351 61.046 29.932 94.72-3.151 4.529-8.862 10.043-12.603 12.406-4.726 3.151-7.286 6.498-8.074 11.028-0.788 3.545-0.985 6.892-0.394 7.286 0.394 0.394 4.332-0.788 8.665-2.757 10.831-4.923 23.434-18.117 30.917-32.689 5.908-11.028 6.302-13.194 6.302-32.492 0-18.511-0.591-21.662-5.317-30.523-13.982-26.585-35.643-40.763-63.606-41.551-8.665-0.394-18.314 0.197-21.662 0.985z"></path>
<path fill="#000" d="M557.292 847.557v7.089h9.452c18.511 0 44.898 18.708 49.822 35.446 1.969 6.498 3.545 8.271 9.452 9.846 3.742 0.985 7.286 1.575 7.68 0.985 1.772-1.772-4.529-16.738-12.012-27.766-8.862-12.997-20.874-23.434-29.932-25.6-3.151-0.788-6.892-1.969-7.877-2.954-1.182-0.788-7.483-2.166-14.375-2.954l-12.209-1.378v7.286z"></path>
<path fill="#000" d="M526.178 848.935c-2.757 0.985-3.938 2.56-3.151 3.938s0.591 1.772-0.788 0.985c-5.317-3.151-27.963 23.828-31.902 38.006-1.182 4.529-1.969 16.148-1.772 25.797 0.197 15.557 1.182 19.102 6.498 29.735 7.68 15.36 23.040 29.538 38.203 35.446 12.603 4.923 41.354 6.498 49.822 2.56 25.994-12.209 26.191-12.406 36.628-26.388 7.483-10.043 16.345-30.129 14.375-32.098-0.591-0.591-3.545-1.575-6.892-2.166-5.711-1.182-5.908-0.985-9.255 10.043-4.135 13.982-16.148 27.175-31.311 34.855-8.468 4.135-13.194 5.12-25.403 5.12-12.997 0-16.935-0.788-27.175-5.908-12.603-6.498-22.843-17.92-29.932-34.068-4.332-9.452-3.938-32.098 0.788-42.929 3.742-8.862 15.557-23.237 23.040-27.963 4.529-2.954 5.711-5.12 5.711-10.437 0-7.089-0.394-7.483-7.483-4.529z"></path>
<path fill="#000" d="M405.662 863.902c0 7.68 16.738 34.462 25.994 41.748 7.68 6.105 29.145 14.178 40.369 15.36l10.437 1.182v-6.892c0-6.892-0.197-6.892-9.846-8.074-5.317-0.591-13.588-2.954-18.314-4.923-10.831-4.726-28.16-22.055-29.932-29.735-1.575-7.089-4.332-9.649-12.406-11.225-5.317-1.182-6.302-0.788-6.302 2.56z"></path>
</svg>
